<?xml version="1.0" standalone="no"?>
<!DOCTYPE svg PUBLIC "-//W3C//DTD SVG 20010904//EN"
 "http://www.w3.org/TR/2001/REC-SVG-20010904/DTD/svg10.dtd">
<svg version="1.0" xmlns="http://www.w3.org/2000/svg"
 width="460.000000pt" height="460.000000pt" viewBox="0 0 460.000000 460.000000"
 preserveAspectRatio="xMidYMid meet">

<g transform="translate(0.000000,460.000000) scale(0.100000,-0.100000)"
fill="#000000" stroke="none">
<path d="M0 3991 l0 -609 33 4 c17 1 35 3 40 3 12 1 8 41 -5 41 -8 1 -6 6 5
14 12 9 28 11 51 6 47 -10 55 -17 48 -42 -4 -18 -2 -20 16 -16 17 5 22 2 22
-14 0 -13 6 -18 18 -16 22 4 29 46 8 54 -27 10 -18 24 15 24 31 0 32 -3 12
-56 -6 -15 23 -38 32 -24 3 5 13 10 21 10 12 0 11 -6 -5 -29 -14 -19 -27 -28
-39 -24 -10 2 -24 -2 -31 -11 -10 -12 -9 -18 8 -33 12 -9 21 -23 21 -30 0 -6
8 -12 18 -12 9 0 26 -2 37 -5 11 -2 28 -5 38 -5 24 -1 22 -21 -3 -21 -22 0
-26 -20 -10 -51 7 -13 7 -19 0 -19 -5 0 -10 7 -10 15 0 19 -5 19 -41 -2 -38
-23 -37 -33 4 -33 24 0 28 -3 17 -10 -8 -5 -15 -24 -16 -42 -1 -18 -7 -34 -13
-36 -6 -2 -11 -15 -11 -28 0 -15 -6 -24 -16 -24 -9 0 -14 -6 -11 -12 2 -7 9
-12 15 -11 6 2 14 -6 17 -17 4 -11 11 -20 16 -20 6 0 6 7 1 18 -11 20 -5 45 9
36 5 -3 9 0 9 5 0 7 7 7 20 -1 14 -9 20 -24 20 -50 0 -20 4 -39 8 -42 5 -3 9
-21 10 -41 1 -20 4 -40 7 -46 4 -5 4 -23 0 -39 -9 -39 -42 -42 -42 -5 0 36 -6
38 -43 18 -32 -18 -42 -41 -14 -35 19 4 18 -5 -6 -35 -11 -14 -20 -34 -20 -44
0 -16 6 -18 45 -12 62 8 90 -8 105 -62 7 -24 9 -48 6 -54 -4 -5 0 -26 8 -45 8
-19 18 -56 21 -80 4 -25 13 -63 20 -83 7 -21 11 -41 8 -45 -7 -13 -56 -9 -87
7 -20 11 -33 12 -40 5 -14 -14 -59 -12 -81 4 -17 12 -23 12 -48 -6 -15 -11
-34 -17 -42 -14 -18 7 -20 57 -2 54 7 -2 12 8 12 27 0 23 -4 30 -20 30 -11 0
-25 3 -32 8 -6 4 -14 3 -18 -3 -10 -15 -35 -12 -35 5 0 8 6 15 14 15 13 0 27
69 26 127 0 23 -54 216 -65 234 -4 5 -17 44 -30 86 l-24 78 0 -639 c-1 -638
-1 -639 19 -621 17 16 20 16 20 2 0 -9 -9 -19 -20 -22 -19 -6 -20 -15 -20
-356 0 -304 2 -349 15 -349 19 0 19 -27 0 -46 -20 -21 -19 -41 3 -47 16 -4 16
-5 0 -6 -15 -1 -18 -11 -18 -61 0 -50 3 -60 18 -61 9 -1 22 -2 27 -4 6 -1 16
-3 23 -3 28 -4 9 -21 -25 -24 l-38 -3 -3 -342 -2 -343 533 0 532 0 24 137 c22
129 45 212 56 201 3 -2 7 -36 10 -73 7 -86 32 -132 115 -208 l61 -57 547 0
546 0 59 58 c33 31 78 75 100 97 22 22 53 49 68 60 15 12 54 45 86 75 33 30
79 72 104 94 24 21 78 70 120 110 42 39 93 87 114 106 69 63 132 146 139 185
8 40 1 60 -10 29 -4 -10 -16 -29 -28 -42 -12 -13 -20 -25 -18 -28 7 -13 -1
-26 -23 -34 -14 -5 -29 -20 -34 -33 -5 -12 -16 -29 -25 -36 -9 -7 -16 -19 -16
-26 0 -8 -20 -26 -45 -42 -24 -15 -45 -35 -45 -43 0 -13 -1 -13 -10 0 -9 14
-15 7 -11 -14 1 -5 -4 -6 -12 -3 -17 6 -43 -13 -50 -38 -4 -18 -5 -18 -6 2 0
12 6 28 14 37 9 8 14 21 13 28 -2 8 8 14 25 16 29 4 34 11 15 30 -9 9 -9 12 0
12 7 0 12 9 12 20 0 11 7 20 15 20 8 0 15 9 15 20 0 11 6 20 13 20 16 1 70 78
64 93 -2 7 6 28 19 47 13 19 24 30 25 25 2 -31 30 101 33 157 2 37 7 72 11 78
4 6 8 30 9 52 2 35 1 38 -11 22 -7 -10 -13 -16 -14 -13 -11 65 -16 74 -35 58
-23 -19 -44 13 -44 67 0 43 -16 93 -34 106 -17 12 -48 -12 -43 -32 3 -11 -1
-27 -9 -37 -7 -10 -14 -28 -14 -40 0 -16 -6 -23 -19 -23 -11 0 -22 -6 -24 -12
-3 -8 -6 -6 -6 5 -1 20 -29 23 -37 3 -3 -8 2 -29 12 -48 26 -49 24 -72 -8 -76
-15 -2 -40 -18 -56 -36 -16 -18 -38 -35 -49 -38 -25 -7 -57 16 -50 35 4 11 0
13 -16 10 -18 -5 -20 -3 -9 8 14 15 16 29 3 29 -5 0 -12 -9 -16 -19 -4 -12
-12 -17 -24 -14 -11 3 -29 0 -41 -7 -20 -11 -21 -18 -18 -86 2 -54 0 -74 -9
-74 -7 0 -13 -10 -13 -23 0 -12 -14 -39 -30 -59 -19 -23 -28 -42 -24 -53 4
-10 -1 -22 -15 -31 -12 -9 -19 -19 -16 -24 3 -5 -4 -14 -15 -20 -11 -6 -20
-19 -20 -28 0 -10 -13 -25 -29 -35 -32 -19 -81 -23 -81 -7 0 6 -5 10 -10 10
-6 0 -5 -8 2 -20 17 -26 8 -32 -29 -18 -36 14 -63 -1 -63 -33 0 -11 -6 -19
-14 -19 -8 0 -23 -10 -33 -23 -10 -12 -30 -28 -45 -34 -16 -7 -28 -17 -28 -23
0 -5 -4 -10 -10 -10 -5 0 -10 25 -10 55 0 44 -3 53 -15 49 -8 -4 -15 -14 -15
-24 0 -46 -26 -68 -32 -27 -2 16 -9 21 -26 20 -12 -2 -22 1 -22 6 0 5 -7 12
-16 15 -21 8 -54 -21 -54 -47 0 -19 -1 -19 -18 -4 -10 10 -24 17 -30 17 -17 0
-15 20 3 26 26 11 16 23 -12 15 -16 -4 -28 -14 -29 -22 -3 -39 -3 -40 -25 -28
-20 10 -21 9 -14 -19 7 -34 -12 -55 -27 -29 -5 9 -15 14 -22 11 -8 -3 -24 7
-37 25 -12 17 -26 28 -31 25 -4 -3 -8 -1 -8 4 0 17 -29 22 -55 10 -34 -15 -32
-26 4 -20 16 2 32 -1 36 -8 10 -16 -3 -26 -17 -12 -16 16 -28 15 -28 -3 0 -9
7 -18 16 -22 13 -5 13 -7 2 -14 -24 -15 -48 -10 -48 10 0 11 -4 23 -10 26 -12
7 -24 -39 -16 -60 3 -9 0 -15 -9 -15 -8 0 -15 7 -15 15 0 8 -9 15 -20 15 -12
0 -20 7 -20 16 0 9 -6 14 -13 11 -10 -4 -13 2 -9 19 3 19 0 24 -17 24 -12 0
-21 -6 -21 -15 0 -25 -29 -5 -51 35 -15 26 -27 36 -39 33 -9 -3 -25 3 -34 12
-9 10 -20 15 -23 11 -12 -11 -37 38 -34 66 2 19 -2 28 -12 28 -8 0 -20 7 -27
15 -7 8 -16 13 -20 10 -5 -3 -6 4 -3 15 4 15 0 20 -16 20 -13 0 -19 5 -15 13
2 7 -2 27 -11 43 -8 16 -15 34 -15 40 0 6 -20 21 -45 33 -38 19 -45 27 -45 51
0 16 -5 32 -10 35 -5 3 -10 16 -10 28 -1 26 -22 57 -40 57 -7 0 -10 7 -6 16 3
9 1 34 -6 55 -10 35 -9 41 8 54 18 14 18 14 -3 10 -25 -4 -29 5 -11 23 9 9 9
15 0 24 -17 17 -16 44 1 30 7 -6 24 -13 39 -16 14 -2 35 -9 46 -15 24 -13 64
12 56 34 -4 8 -1 15 5 15 6 0 10 -17 9 -40 -1 -21 -5 -37 -10 -34 -4 3 -13 -7
-18 -22 -8 -20 -8 -29 2 -35 7 -5 16 -3 20 4 5 8 8 7 8 -3 0 -30 19 -37 71
-29 45 7 56 5 89 -16 50 -31 110 -92 110 -110 0 -8 8 -19 18 -25 14 -9 14 -12
3 -17 -11 -4 -8 -10 10 -24 19 -14 20 -19 7 -19 -14 0 -14 -4 -5 -25 11 -21
52 -51 68 -47 3 0 12 -10 19 -23 7 -14 19 -25 26 -25 8 0 11 -6 8 -15 -4 -9 0
-15 7 -16 39 -3 98 4 132 16 42 14 52 7 43 -31 -5 -17 -2 -24 9 -24 14 0 19
-11 16 -37 -3 -24 19 -13 32 14 6 15 20 36 30 45 9 10 17 27 17 39 0 39 25 13
28 -29 4 -50 27 -57 37 -12 8 37 28 39 42 3 11 -27 11 -27 12 14 1 48 15 63
31 33 6 -11 17 -20 25 -20 8 0 15 -5 15 -11 0 -8 5 -8 15 1 8 7 15 19 15 26 0
8 5 14 10 14 6 0 10 11 10 25 0 21 6 27 31 32 19 3 34 14 36 24 3 10 16 25 30
34 19 13 22 19 13 31 -23 27 1 76 78 159 17 20 32 42 32 50 0 8 8 19 19 24 10
6 22 22 25 35 10 39 48 74 85 78 28 3 37 11 62 56 33 59 37 97 13 106 -9 4
-14 9 -10 13 15 15 -39 53 -86 59 -26 4 -48 10 -48 14 0 4 -17 10 -39 12 -30
2 -37 0 -33 -11 4 -10 -1 -12 -17 -6 -12 4 -28 2 -34 -4 -8 -6 -18 -6 -27 -1
-13 8 -17 27 -19 93 -1 20 -6 27 -22 27 -18 0 -20 4 -13 33 9 43 6 112 -11
200 -8 40 -25 51 -25 16 0 -30 -38 -60 -75 -59 -16 1 -65 2 -107 1 -62 -1 -78
-4 -78 -16 0 -22 -56 -48 -79 -36 -14 8 -22 7 -31 -4 -7 -8 -21 -15 -31 -15
-10 0 -20 -4 -24 -9 -7 -12 -115 -10 -115 2 0 4 -15 23 -34 42 -32 32 -35 33
-61 19 -16 -8 -38 -26 -51 -39 -13 -14 -34 -25 -49 -25 -14 0 -25 -4 -25 -10
0 -16 -38 -11 -48 6 -6 10 -14 14 -22 9 -9 -5 -11 -22 -6 -59 7 -50 9 -88 7
-133 -1 -30 -43 -55 -90 -55 -25 1 -41 -4 -45 -14 -3 -8 -12 -14 -20 -14 -12
0 -14 -8 -11 -32 4 -24 3 -27 -3 -14 -6 14 -11 16 -16 8 -4 -7 -5 -16 -1 -21
3 -5 -7 -19 -22 -30 -16 -11 -33 -25 -39 -30 -7 -6 -15 -7 -19 -3 -3 4 -11 -1
-16 -11 -12 -21 -29 -13 -29 14 0 12 7 19 20 19 11 0 20 5 20 11 0 6 -6 9 -14
6 -8 -3 -20 0 -26 8 -8 10 -19 11 -46 3 -44 -12 -56 -8 -60 19 -2 14 3 23 14
26 13 4 12 5 -5 6 -12 0 -23 7 -26 14 -3 9 -8 9 -21 -2 -20 -17 -33 -7 -38 29
-4 23 -5 23 -14 -9 l-10 -34 -18 28 c-14 22 -16 32 -8 46 9 13 8 19 -4 23 -22
9 -24 8 -24 -11 0 -14 -3 -14 -12 -5 -10 10 -10 15 2 22 13 8 11 12 -10 27
-13 10 -34 21 -45 25 -16 5 -14 6 9 7 l30 1 -22 20 c-12 11 -26 20 -32 20 -5
0 -11 3 -11 8 -1 4 -3 18 -5 32 -8 62 -17 92 -30 97 -9 3 -11 22 -8 70 2 35 7
70 10 75 4 7 2 8 -4 4 -7 -4 -12 -2 -12 3 0 6 4 11 9 11 5 0 11 19 15 42 10
60 23 73 53 53 13 -9 28 -13 34 -9 8 4 7 9 -2 15 -11 7 -10 9 3 9 20 0 35 -20
21 -29 -13 -9 -16 -81 -3 -81 6 0 26 11 44 25 18 14 41 25 52 25 12 0 15 3 7
8 -6 4 20 7 58 6 71 -1 100 10 55 22 -59 15 -27 53 47 55 41 1 122 26 89 28
-19 1 -21 3 -10 20 18 29 152 60 162 38 3 -8 7 -9 13 -2 8 11 135 75 148 75 4
0 15 10 25 22 15 19 20 20 34 9 9 -7 16 -24 16 -37 0 -12 5 -26 11 -30 15 -9
30 16 25 40 -3 11 0 26 6 33 16 20 9 225 -8 242 -3 3 -9 -1 -15 -9 -8 -13 -11
-13 -23 3 -8 11 -27 17 -51 17 -29 0 -36 3 -31 16 3 8 2 12 -4 9 -5 -3 -22 14
-37 39 -15 25 -37 47 -50 51 -42 10 -202 17 -215 8 -7 -4 -42 -8 -78 -9 -137
-1 -229 -31 -262 -84 -7 -11 -18 -20 -25 -20 -7 0 -15 -15 -18 -34 -6 -27 -11
-33 -26 -29 -14 4 -19 0 -19 -14 0 -11 -7 -28 -15 -39 -13 -16 -16 -17 -25 -4
-7 11 -5 16 9 18 22 4 31 39 31 117 0 55 -8 65 -51 65 -10 0 -19 5 -19 10 0 6
5 10 11 10 5 0 8 4 5 9 -3 4 1 44 8 87 8 47 11 95 6 119 -7 39 -7 39 -18 15
-11 -25 -11 -25 -11 8 -1 18 4 32 11 32 6 0 4 8 -7 20 -14 16 -15 24 -6 51 13
38 13 42 3 35 -4 -2 -4 39 0 92 13 155 69 252 181 312 88 47 116 61 161 79 27
12 54 21 60 21 7 0 28 8 48 18 24 13 82 23 173 32 75 7 142 19 149 25 14 15
60 24 151 31 138 10 217 24 245 44 20 14 44 20 84 20 31 0 82 9 114 19 55 19
175 23 200 7 6 -3 13 -2 16 3 3 5 15 7 26 4 12 -3 29 2 40 12 18 16 21 16 65
-5 31 -15 56 -20 76 -16 20 4 31 1 35 -7 3 -8 24 -14 52 -15 76 -3 142 -14
142 -24 0 -5 14 -21 30 -35 17 -13 30 -30 30 -37 0 -7 13 -23 30 -36 31 -27
41 -70 15 -70 -8 0 -15 -5 -15 -11 0 -6 7 -9 15 -5 9 3 20 -3 27 -14 8 -12 24
-20 40 -20 19 0 28 -5 28 -16 0 -11 -6 -15 -19 -11 -14 3 -17 0 -14 -14 3 -12
14 -19 29 -19 13 0 24 -4 24 -10 0 -5 8 -7 18 -4 16 5 16 5 0 -6 -21 -13 -23
-120 -2 -120 7 0 16 5 19 10 11 18 25 10 25 -15 0 -15 -6 -25 -14 -25 -8 0
-18 -5 -22 -12 -4 -7 -3 -8 4 -4 7 4 12 1 12 -10 0 -22 60 -144 71 -144 5 0 9
-7 9 -16 0 -8 13 -43 29 -77 16 -34 40 -100 52 -147 12 -47 26 -89 30 -95 5
-5 9 -17 9 -26 0 -9 7 -20 16 -23 8 -3 12 -10 9 -16 -10 -16 5 -50 21 -50 10
0 14 -12 14 -40 0 -22 5 -40 10 -40 6 0 10 -7 10 -16 0 -26 32 -114 41 -114 6
0 7 33 3 78 -5 65 -4 80 10 91 9 7 16 23 17 35 0 11 3 15 6 9 18 -46 53 55 59
172 10 172 101 324 155 259 8 -9 15 -52 17 -105 4 -76 1 -94 -17 -130 -22 -41
-21 -54 2 -54 7 -1 11 -7 9 -14 -2 -8 7 -20 18 -28 12 -9 31 -36 41 -61 11
-26 25 -50 32 -54 9 -5 8 -16 -2 -43 -16 -44 -5 -255 13 -255 28 0 55 13 60
28 3 10 19 41 35 70 16 28 26 52 21 52 -13 0 -20 30 -14 56 11 43 64 24 64
-23 0 -12 -8 -26 -17 -32 -14 -7 -15 -13 -6 -22 15 -15 28 -6 47 33 25 48 20
65 -23 87 -63 33 -82 111 -26 111 28 0 44 25 26 43 -6 6 -11 24 -11 39 0 16
-4 34 -10 41 -5 7 -21 27 -36 45 -14 17 -34 32 -44 32 -39 0 -70 23 -80 59
-13 48 -13 66 3 79 13 11 85 28 102 24 6 -1 2 4 -8 12 -25 20 -15 72 16 82 39
12 47 23 35 50 -9 19 -19 24 -47 24 -36 0 -173 59 -186 80 -4 6 -21 8 -42 4
-41 -8 -153 23 -153 42 0 7 13 15 30 19 16 3 32 15 35 25 3 11 15 22 26 25 10
4 19 15 19 25 0 35 11 52 26 39 23 -19 47 -3 40 26 -4 15 0 38 10 57 l16 32
14 -25 c7 -13 13 -36 14 -51 0 -22 -5 -28 -21 -28 -12 0 -17 -4 -13 -11 3 -6
16 -8 29 -5 14 4 28 0 36 -10 9 -11 22 -14 41 -10 15 3 39 0 53 -6 21 -10 28
-8 40 8 10 11 14 32 11 51 -3 20 1 36 10 44 11 9 14 29 13 68 -3 64 17 167 37
196 8 11 14 43 14 72 0 29 5 53 10 53 6 0 10 11 10 25 0 15 6 38 14 53 8 15
12 39 9 54 -4 22 -13 28 -56 37 -48 11 -79 16 -117 20 -10 1 -11 4 -3 12 6 6
9 18 6 25 -7 19 -42 18 -49 -1 -4 -8 -11 -15 -16 -15 -6 0 -8 6 -5 14 6 15
-19 30 -34 20 -5 -3 -9 1 -9 10 0 8 -6 17 -12 19 -9 4 -9 6 1 6 8 1 22 8 32
17 16 15 20 15 50 0 18 -9 38 -16 46 -16 7 0 13 -6 13 -13 0 -7 7 -22 15 -33
15 -19 15 -19 30 0 19 25 19 36 0 36 -8 0 -15 6 -15 14 0 31 -30 46 -93 46
-67 0 -73 -4 -109 -66 -18 -31 -13 -30 -134 -18 -39 4 -55 2 -68 -11 -9 -9
-13 -22 -9 -28 12 -20 12 -34 -3 -89 -15 -60 -15 -137 1 -139 19 -3 40 -6 53
-8 6 0 12 -8 12 -16 0 -21 59 -20 67 1 9 25 -23 45 -53 34 -23 -9 -24 -7 -25
30 -1 22 -2 46 -3 53 -1 6 12 13 27 15 26 3 28 1 22 -18 -6 -20 6 -39 25 -40
3 0 4 36 2 80 -2 44 -1 80 3 80 18 0 45 -23 45 -38 0 -13 3 -12 15 5 14 19 22
21 68 16 54 -5 107 -23 107 -35 0 -4 -8 -12 -19 -17 -12 -7 -20 -26 -25 -57
-3 -26 -12 -55 -20 -63 -8 -9 -19 -58 -25 -109 -7 -51 -16 -101 -21 -110 -14
-27 -23 -56 -22 -68 1 -5 -14 -10 -33 -11 -41 -1 -62 25 -46 55 12 23 8 67 -8
86 -7 8 -34 18 -59 21 -26 4 -59 11 -75 17 -20 8 -31 7 -42 -2 -25 -20 -18
-25 38 -26 88 -1 103 -8 115 -57 15 -58 -2 -117 -33 -117 -17 0 -24 -10 -34
-50 -7 -27 -14 -50 -16 -50 -1 0 -22 7 -45 15 -52 18 -63 19 -58 3 3 -7 15
-14 27 -14 12 -1 27 -6 34 -13 6 -6 21 -11 34 -11 13 0 26 -6 29 -14 11 -28
-14 -50 -67 -62 -52 -12 -55 -11 -79 13 -26 26 -34 60 -20 78 5 6 12 34 16 63
6 48 5 52 -14 52 -40 0 -52 10 -41 36 5 14 8 39 7 57 -1 18 2 121 7 230 9 215
10 218 63 199 39 -13 58 -2 43 26 -8 15 -8 28 1 46 11 25 15 26 87 26 75 0
113 11 97 27 -4 4 -39 7 -77 5 -40 -1 -79 3 -92 10 -12 6 -44 13 -71 14 -27 2
-52 7 -55 13 -4 6 -27 9 -57 6 -59 -7 -135 -6 -146 1 -4 3 -10 -1 -13 -8 -4
-10 -39 -13 -157 -12 -83 1 -163 -2 -179 -8 -17 -6 -49 -6 -81 -1 -44 7 -52
12 -50 27 3 16 -1 18 -27 13 -41 -8 -48 8 -11 23 34 14 34 11 30 108 -1 46 2
78 10 87 7 9 10 18 6 22 -3 3 -6 1 -6 -5 0 -7 -5 -12 -11 -12 -7 0 -9 10 -7
25 3 14 1 25 -3 25 -5 0 -9 -6 -9 -12 0 -9 -4 -8 -11 2 -9 12 -10 11 -6 -7 3
-16 0 -23 -9 -23 -8 0 -14 -4 -14 -10 0 -5 -4 -10 -9 -10 -6 0 -6 12 -1 30 l9
30 -295 0 c-267 0 -294 -2 -294 -17 0 -9 -7 -39 -15 -67 -15 -56 -39 -148 -40
-156 -1 -18 -20 -30 -47 -30 -27 0 -30 3 -24 23 4 12 16 65 27 117 11 52 22
103 25 113 5 16 -2 17 -97 15 l-103 -3 -12 -50 c-7 -27 -18 -68 -24 -90 -6
-22 -14 -51 -17 -65 -3 -14 -9 -29 -13 -35 -4 -5 -10 -23 -14 -38 -7 -31 -26
-28 -26 4 0 48 -80 149 -118 149 -19 0 -92 -63 -92 -80 0 -5 -9 -10 -20 -10
-21 0 -29 -35 -10 -42 17 -6 -1 -49 -20 -46 -9 2 -24 -3 -33 -10 -12 -11 -19
-11 -35 -1 -25 16 -96 -2 -128 -32 -11 -11 -34 -20 -50 -19 -112 0 -116 1
-104 15 13 16 5 35 -15 35 -7 0 -17 -17 -22 -37 -9 -40 -33 -57 -33 -24 0 28
-25 27 -45 -1 -12 -16 -19 -19 -22 -10 -3 6 -11 12 -18 12 -7 0 -15 6 -17 12
-3 8 -9 4 -17 -10 -15 -27 -35 -28 -68 -2 -33 26 -43 25 -36 -1 4 -16 2 -20
-8 -17 -8 3 -14 13 -14 23 0 12 -10 21 -27 26 -21 6 -27 3 -33 -15 -6 -21 -6
-20 -17 4 -9 21 -12 22 -15 8 -5 -21 -19 -24 -26 -5 -3 6 -4 -4 -2 -23 2 -25
7 -35 19 -34 9 1 16 -6 16 -15 0 -9 7 -27 16 -39 9 -13 13 -30 10 -39 -6 -14
-9 -14 -28 3 -20 19 -21 19 -14 -2 3 -11 2 -41 -3 -67 -5 -28 -5 -50 0 -53 5
-3 6 -11 2 -17 -4 -6 -9 -27 -13 -47 -3 -23 -13 -38 -28 -45 -15 -7 -20 -15
-15 -25 3 -8 8 -37 11 -65 5 -55 16 -77 38 -68 11 4 14 -6 14 -50 0 -55 12
-82 24 -52 4 11 18 14 57 10 52 -4 73 -18 64 -43 -3 -8 -5 -18 -5 -23 0 -14
-86 -11 -99 5 -15 18 -244 17 -263 -1 -23 -24 -98 -11 -98 16 0 9 14 54 31
101 30 86 99 355 99 387 0 10 7 47 15 83 27 113 53 295 44 304 -5 6 -9 23 -9
39 0 15 -5 48 -11 73 l-11 44 -89 0 -89 0 0 -609z m2227 552 c-3 -10 -5 -2 -5
17 0 19 2 27 5 18 2 -10 2 -26 0 -35z m95 -126 c-11 -12 -23 -40 -27 -62 -5
-30 -4 -36 4 -25 9 13 11 12 11 -4 0 -11 5 -16 14 -13 8 3 22 -3 32 -14 17
-18 16 -19 -12 -20 -16 -1 -44 -3 -61 -5 -38 -4 -38 -4 -16 87 14 59 19 68 35
63 13 -4 18 0 18 14 0 25 14 38 18 17 2 -9 -5 -27 -16 -38z m-1125 -89 c-3 -7
-5 -2 -5 12 0 14 2 19 5 13 2 -7 2 -19 0 -25z m1783 -88 c39 -28 63 -28 75 -2
8 19 15 22 39 18 16 -3 34 -6 41 -6 8 0 16 -14 20 -31 8 -34 2 -45 -15 -34 -9
6 -9 10 1 17 10 7 8 8 -6 3 -11 -4 -27 -7 -36 -7 -22 1 -66 -95 -50 -111 6 -6
11 -29 11 -50 l0 -40 -24 26 c-13 14 -30 39 -37 56 -22 50 -82 31 -104 -32
-14 -40 -5 -57 29 -57 16 0 17 -3 8 -12 -14 -14 -16 -32 -3 -23 6 3 14 -3 20
-12 9 -16 10 -16 11 3 0 18 7 23 37 26 55 7 65 -8 57 -84 -4 -35 -7 -91 -7
-125 0 -76 -14 -81 -43 -16 -17 37 -20 53 -12 76 7 19 7 32 0 39 -13 13 -35 1
-26 -14 4 -7 2 -8 -4 -4 -6 4 -9 12 -6 19 3 8 -2 26 -9 41 -13 24 -16 25 -30
11 -9 -8 -19 -15 -24 -15 -14 0 -44 40 -38 50 3 5 -5 12 -17 15 -42 13 -65 43
-63 80 3 42 13 55 76 95 27 18 46 36 43 41 -5 9 -186 5 -202 -5 -6 -3 -21 -2
-34 2 -36 13 -58 4 -58 -25 0 -20 -3 -23 -14 -14 -7 6 -20 9 -28 6 -18 -7
-114 33 -104 43 5 4 -9 12 -31 18 -21 6 -38 17 -38 25 0 15 147 24 425 26 123
0 149 -2 170 -17z m-2573 -22 c-3 -8 -6 -5 -6 6 -1 11 2 17 5 13 3 -3 4 -12 1
-19z m26 -82 c6 -16 -2 -28 -14 -20 -12 7 -11 34 0 34 5 0 11 -6 14 -14z m154
-31 c2 -22 3 -63 3 -92 -1 -28 4 -54 10 -58 15 -9 12 -51 -5 -65 -11 -9 -14
-23 -9 -49 8 -46 20 -60 44 -54 24 6 26 -9 4 -28 -20 -16 -54 -22 -54 -9 0 6
6 10 13 10 6 0 4 5 -6 11 -9 6 -15 14 -13 18 3 4 -4 18 -15 30 -18 19 -19 23
-5 37 22 21 20 31 -5 39 -27 9 -41 -11 -33 -47 3 -17 1 -28 -5 -28 -17 0 -14
101 4 114 8 6 16 34 18 61 3 28 7 57 10 65 6 13 13 54 16 83 1 5 6 7 12 5 7
-2 14 -22 16 -43z m327 30 c18 -13 18 -15 3 -15 -13 0 -16 -6 -12 -22 3 -13 0
-32 -8 -42 -13 -18 -15 -17 -21 18 -7 37 -1 76 12 76 4 0 16 -7 26 -15z m-234
-5 c0 -5 -4 -10 -10 -10 -5 0 -10 5 -10 10 0 6 5 10 10 10 6 0 10 -4 10 -10z
m2030 -62 c0 -5 -9 -8 -20 -8 -11 0 -20 7 -20 15 0 8 -7 15 -15 15 -8 0 -15 7
-15 15 0 11 8 9 35 -8 19 -12 34 -25 35 -29z m988 -2 c11 -7 14 -126 3 -126
-3 0 -16 24 -27 53 -20 47 -20 53 -5 59 13 5 12 7 -5 7 -12 1 -27 7 -33 15
-10 12 -6 13 22 6 19 -4 39 -10 45 -14z m-3063 -6 c-3 -5 -10 -10 -16 -10 -5
0 -9 5 -9 10 0 6 7 10 16 10 8 0 12 -4 9 -10z m2315 -25 c-7 -9 -15 -13 -18
-10 -3 2 1 11 8 20 7 9 15 13 18 10 3 -2 -1 -11 -8 -20z m-2320 -32 c0 -7 -4
-13 -10 -13 -5 0 -10 12 -10 28 0 21 2 24 10 12 5 -8 10 -21 10 -27z m61 -40
c-2 -47 -14 -73 -33 -73 -6 0 -7 8 -3 18 13 31 15 73 4 93 -14 27 -1 45 19 25
11 -11 15 -31 13 -63z m-181 37 c0 -11 -4 -20 -10 -20 -5 0 -10 9 -10 20 0 11
5 20 10 20 6 0 10 -9 10 -20z m-120 -22 c-1 -19 -29 -53 -37 -45 -4 4 -2 12 4
18 6 6 9 18 6 25 -3 8 1 14 11 14 9 0 16 -6 16 -12z m79 -79 c-19 -11 -29 -2
-29 27 l0 24 21 -21 c17 -17 19 -23 8 -30z m-52 -21 c-3 -7 -5 -2 -5 12 0 14
2 19 5 13 2 -7 2 -19 0 -25z m-17 6 c0 -17 -22 -14 -28 4 -2 7 3 12 12 12 9 0
16 -7 16 -16z m257 -46 c-3 -8 -6 -5 -6 6 -1 11 2 17 5 13 3 -3 4 -12 1 -19z
m2947 7 c-4 -8 -11 -12 -16 -9 -6 4 -5 10 3 15 19 12 19 11 13 -6z m-3240 -11
c4 -9 4 -19 2 -21 -8 -8 -26 8 -26 23 0 19 16 18 24 -2z m194 -118 c3 -62 1
-77 -10 -74 -7 3 -18 14 -23 25 -20 40 -38 55 -62 50 -20 -4 -22 -1 -16 22 8
37 13 43 28 37 8 -3 18 1 23 7 6 7 21 12 34 12 22 0 23 -4 26 -79z m-228 27
c0 -13 -4 -23 -10 -23 -5 0 -10 17 -10 38 0 27 3 33 10 22 5 -8 10 -25 10 -37z
m3193 -57 c6 -16 -2 -28 -14 -20 -12 7 -11 34 0 34 5 0 11 -6 14 -14z m-433
-92 c0 -8 -5 -12 -10 -9 -6 4 -8 11 -5 16 9 14 15 11 15 -7z m250 -75 c0 -5
-4 -9 -10 -9 -5 0 -10 7 -10 16 0 8 5 12 10 9 6 -3 10 -10 10 -16z m-14 -64
c-3 -9 -11 -13 -16 -10 -8 5 -7 11 1 21 14 18 24 11 15 -11z m-2991 -15 c-3
-5 -13 -10 -21 -10 -8 0 -14 5 -14 10 0 6 9 10 21 10 11 0 17 -4 14 -10z m95
-64 c0 -30 -27 -55 -35 -34 -8 20 13 71 25 63 5 -3 10 -17 10 -29z m2748 -3
c9 -9 15 -28 14 -44 -2 -15 2 -38 9 -51 13 -23 22 -65 39 -168 5 -30 12 -70
16 -87 5 -29 4 -33 -14 -33 -15 0 -22 9 -27 33 -4 17 -15 48 -25 67 -20 41
-45 174 -35 190 3 5 3 15 -1 22 -16 25 -15 88 1 88 4 0 14 -7 23 -17z m396
-258 c-17 -25 -26 -30 -37 -19 -11 12 13 44 34 44 18 0 19 -1 3 -25z m-3219
-115 c3 -5 2 -10 -4 -10 -5 0 -13 5 -16 10 -3 6 -2 10 4 10 5 0 13 -4 16 -10z
m202 -462 c-3 -8 -6 -5 -6 6 -1 11 2 17 5 13 3 -3 4 -12 1 -19z m13 -39 c0
-11 -4 -17 -10 -14 -5 3 -10 13 -10 21 0 8 5 14 10 14 6 0 10 -9 10 -21z m668
-221 c-7 -19 -38 -22 -38 -4 0 10 9 16 21 16 12 0 19 -5 17 -12z m-758 -87 c0
-5 -10 -12 -22 -16 l-23 -8 21 -4 c12 -2 30 -14 40 -25 17 -19 17 -21 2 -15
-12 4 -15 2 -11 -9 8 -21 -24 -18 -57 6 -28 20 -29 20 -35 1 -5 -16 -19 -20
-78 -25 -163 -15 -167 -16 -165 -41 2 -22 6 -23 60 -20 65 5 78 10 78 31 0 18
31 15 38 -4 2 -7 0 -12 -5 -11 -25 4 -25 -3 1 -16 15 -8 40 -14 55 -14 17 1
20 3 9 6 -12 3 -18 14 -18 34 0 33 6 36 32 12 23 -21 25 -81 2 -90 -9 -3 -19
-1 -23 5 -6 11 -51 10 -89 -2 -14 -5 -29 -3 -37 4 -11 9 -15 9 -15 1 0 -6 -7
-11 -16 -11 -8 0 -12 5 -9 10 4 6 -5 10 -19 10 -14 0 -26 -6 -26 -12 0 -10 -2
-10 -8 0 -6 8 -30 11 -74 10 -37 -2 -70 0 -74 4 -15 15 19 38 57 38 36 0 39 2
39 28 0 15 5 33 12 40 9 9 9 12 0 12 -7 0 -12 5 -12 10 0 6 9 10 20 10 10 0
23 6 27 13 11 16 46 19 55 4 5 -8 8 -6 8 6 0 21 16 22 37 2 17 -18 73 -16 80
2 5 12 41 11 62 -1 5 -3 14 1 21 9 7 8 15 13 19 11 4 -3 13 -1 21 5 19 11 20
11 20 0z m547 -37 c-3 -3 -12 -4 -19 -1 -8 3 -5 6 6 6 11 1 17 -2 13 -5z
m-847 -94 c0 -5 -4 -10 -10 -10 -5 0 -10 5 -10 10 0 6 5 10 10 10 6 0 10 -4
10 -10z m-60 -119 c0 -11 -4 -22 -9 -25 -12 -8 -34 21 -26 34 11 17 35 11 35
-9z m18 -84 c2 -10 -3 -17 -12 -17 -10 0 -16 9 -16 21 0 24 23 21 28 -4z m27
-57 c3 -5 1 -10 -4 -10 -6 0 -11 5 -11 10 0 6 2 10 4 10 3 0 8 -4 11 -10z
m373 -62 c23 -109 33 -170 28 -175 -2 -3 -14 5 -26 17 -19 19 -23 37 -27 121
-3 56 -2 99 3 99 5 0 15 -28 22 -62z m-478 -22 c0 -3 -4 -8 -10 -11 -5 -3 -10
-1 -10 4 0 6 5 11 10 11 6 0 10 -2 10 -4z m600 -126 c0 -5 -4 -10 -10 -10 -5
0 -10 5 -10 10 0 6 5 10 10 10 6 0 10 -4 10 -10z m1124 -115 c7 -18 67 -20 84
-3 9 9 12 9 12 0 0 -8 16 -12 44 -12 26 0 48 -6 56 -15 7 -8 25 -15 41 -15 16
0 29 -4 29 -9 0 -4 -37 -11 -83 -14 -48 -3 -106 -15 -137 -27 -37 -14 -82 -22
-140 -25 -47 -1 -103 -6 -125 -10 -29 -5 -36 -4 -25 4 8 6 23 11 33 11 10 0
30 9 46 21 15 11 48 23 72 26 48 6 69 24 69 60 0 26 15 31 24 8z m411 -7 c-2
-34 -35 -37 -35 -4 0 19 5 26 18 26 13 0 18 -7 17 -22z m20 -49 c11 -11 -15
-11 -81 -2 -45 7 -47 8 -19 13 34 8 85 2 100 -11z m-1005 -19 c-10 -6 -9 -9 2
-11 12 -3 13 -10 7 -27 -11 -30 -29 -19 -29 17 0 31 8 43 22 34 6 -3 5 -9 -2
-13z m83 -5 c-3 -9 -8 -14 -10 -11 -3 3 -2 9 2 15 9 16 15 13 8 -4z m-103 -65
c0 -5 -4 -10 -10 -10 -5 0 -10 5 -10 10 0 6 5 10 10 10 6 0 10 -4 10 -10z
m874 -52 c19 -38 20 -69 4 -87 -11 -11 -10 -14 0 -18 10 -4 9 -8 -4 -17 -11
-9 -14 -18 -9 -26 13 -21 12 -60 -2 -78 -7 -10 -13 -24 -13 -32 0 -27 -34 -48
-61 -38 -36 14 -92 17 -106 6 -19 -15 -182 -16 -195 0 -6 6 -21 12 -34 12 -21
0 -24 5 -24 39 0 38 -14 63 -22 40 -3 -8 -15 -9 -37 -4 -47 10 -28 20 42 21
112 2 251 14 284 23 17 5 34 7 37 3 3 -3 6 -3 6 1 0 3 -7 13 -16 21 -12 12
-20 13 -35 6 -10 -6 -38 -11 -62 -11 -23 0 -91 -1 -152 -2 l-110 -2 0 35 c0
31 3 35 23 33 17 -2 28 6 40 27 25 45 113 61 146 27 22 -22 28 -21 43 3 7 10
31 25 53 31 37 11 42 10 63 -9 31 -29 51 -28 65 3 17 37 56 34 76 -7z m96 -6
c0 -26 -7 -45 -19 -56 -19 -17 -20 -17 -30 3 -15 27 -14 43 5 69 24 35 44 28
44 -16z m70 18 c0 -5 -10 -10 -22 -10 -19 0 -20 2 -8 10 19 13 30 13 30 0z
m-17 -97 c-7 -2 -19 -2 -25 0 -7 3 -2 5 12 5 14 0 19 -2 13 -5z m-1993 -252
c0 -6 -4 -12 -8 -15 -5 -3 -7 -19 -4 -36 4 -27 1 -30 -21 -30 -33 0 -43 44
-16 71 20 20 49 26 49 10z m85 -1 c4 -6 -5 -10 -20 -10 -15 0 -24 4 -20 10 3
6 12 10 20 10 8 0 17 -4 20 -10z m123 -1 c-2 -6 -8 -10 -13 -10 -5 0 -11 4
-13 10 -2 6 4 11 13 11 9 0 15 -5 13 -11z m1519 -141 c-3 -8 -6 -5 -6 6 -1 11
2 17 5 13 3 -3 4 -12 1 -19z m-1783 -87 c-16 -15 -76 -22 -71 -8 2 6 16 12 31
13 14 1 29 4 33 8 3 3 9 4 12 1 2 -3 0 -9 -5 -14z m246 0 c0 -9 -34 -21 -62
-21 -29 0 -21 18 10 23 48 7 52 7 52 -2z m2000 -105 c0 -3 -4 -8 -10 -11 -5
-3 -10 -1 -10 4 0 6 5 11 10 11 6 0 10 -2 10 -4z m-532 -104 c2 -7 -3 -12 -12
-12 -9 0 -16 7 -16 16 0 17 22 14 28 -4z m119 -14 c-3 -7 -5 -2 -5 12 0 14 2
19 5 13 2 -7 2 -19 0 -25z"/>
<path d="M2748 4223 c7 -3 16 -2 19 1 4 3 -2 6 -13 5 -11 0 -14 -3 -6 -6z"/>
<path d="M2980 3933 c0 -16 5 -35 10 -43 7 -11 10 -4 10 28 0 23 -4 42 -10 42
-5 0 -10 -12 -10 -27z"/>
<path d="M562 4069 c-1 -15 -5 -42 -8 -60 -5 -26 -4 -31 5 -23 8 7 11 30 8 60
-2 27 -4 37 -5 23z"/>
<path d="M1950 1161 c0 -12 5 -20 12 -18 7 1 12 -3 13 -10 0 -22 15 -26 15 -4
0 12 3 20 8 18 4 -2 21 2 37 9 l30 13 -42 1 c-23 0 -48 3 -57 6 -12 4 -16 0
-16 -15z"/>
<path d="M1156 4592 c-2 -4 4 -19 15 -32 14 -19 19 -21 19 -8 0 36 -21 61 -34
40z"/>
<path d="M2448 4593 c6 -2 18 -2 25 0 6 3 1 5 -13 5 -14 0 -19 -2 -12 -5z"/>
<path d="M2584 4584 c3 -8 2 -13 -2 -11 -4 3 -34 1 -66 -4 -40 -5 -63 -13 -69
-25 -10 -17 -11 -133 -1 -165 7 -25 65 -41 103 -28 22 8 40 8 54 2 12 -6 42
-9 67 -9 25 1 111 3 192 4 118 2 150 5 162 18 15 14 16 14 16 -1 0 -18 11 -18
78 3 28 9 33 8 43 -9 8 -16 13 -18 25 -8 12 10 19 8 37 -10 13 -11 33 -21 45
-21 11 0 24 -5 27 -10 4 -7 14 -6 28 1 13 8 92 12 221 13 153 1 200 4 204 14
3 9 7 10 17 2 12 -10 38 -10 137 -1 4 1 14 13 22 29 l14 27 11 -27 c6 -16 17
-28 26 -28 8 0 15 -6 15 -14 0 -40 72 -18 90 27 7 17 9 18 9 5 1 -10 5 -18 10
-18 5 0 11 -12 13 -27 l4 -28 13 30 c11 27 10 31 -8 44 -15 10 -21 24 -21 52
0 22 -5 39 -10 39 -6 0 -8 10 -5 23 3 12 0 31 -8 41 -12 17 -29 19 -148 21
-138 2 -163 -1 -153 -16 3 -5 -2 -9 -11 -9 -9 0 -13 5 -10 10 3 6 1 10 -5 10
-7 0 -10 7 -6 15 4 12 -3 15 -34 15 -22 0 -40 5 -40 10 0 6 30 10 68 11 37 0
76 4 87 9 12 5 -34 9 -122 9 l-143 1 0 -25 c0 -25 -23 -35 -35 -15 -3 6 -15 6
-29 0 -13 -5 -66 -5 -118 -2 -52 4 -114 3 -137 -1 -24 -5 -50 -5 -59 -1 -9 4
-26 6 -37 5 -19 -1 -19 -1 -2 12 9 8 17 17 17 21 0 3 -131 6 -291 6 -259 0
-290 -2 -285 -16z m516 -24 c10 -7 -28 -10 -117 -10 -82 0 -133 4 -133 10 0
13 230 13 250 0z m156 -74 c7 -18 -14 -58 -27 -51 -10 7 -12 48 -2 58 11 11
23 8 29 -7z m-146 -16 c0 -5 -5 -10 -11 -10 -5 0 -7 5 -4 10 3 6 8 10 11 10 2
0 4 -4 4 -10z m734 1 c9 -14 -57 -110 -76 -110 -14 -1 -16 6 -12 37 9 59 24
82 55 82 15 0 30 -4 33 -9z m176 -5 c0 -15 -52 -24 -105 -18 l-30 4 30 13 c42
18 105 19 105 1z m-1537 -11 c-3 -9 -8 -14 -10 -11 -3 3 -2 9 2 15 9 16 15 13
8 -4z m501 0 c-4 -8 -8 -15 -10 -15 -2 0 -4 7 -4 15 0 8 4 15 10 15 5 0 7 -7
4 -15z m47 -58 c-13 -13 -15 1 -4 30 7 17 8 17 11 -1 2 -10 -1 -23 -7 -29z
m204 -7 c0 -13 -5 -25 -12 -27 -13 -5 -27 32 -18 47 11 18 30 5 30 -20z"/>
<path d="M3265 4590 c3 -5 8 -10 11 -10 2 0 4 5 4 10 0 6 -5 10 -11 10 -5 0
-7 -4 -4 -10z"/>
<path d="M3328 4593 c6 -2 18 -2 25 0 6 3 1 5 -13 5 -14 0 -19 -2 -12 -5z"/>
<path d="M4010 4590 c20 -13 70 -13 70 0 0 6 -19 10 -42 10 -32 0 -39 -3 -28
-10z"/>
<path d="M4105 4568 c3 -18 7 -41 9 -52 3 -25 36 -47 58 -40 12 4 18 0 18 -11
0 -12 -6 -15 -19 -10 -13 4 -21 0 -25 -12 -7 -27 -2 -88 8 -85 5 2 13 -3 18
-11 13 -25 63 -46 82 -35 25 14 185 1 202 -17 20 -19 20 -19 55 6 16 11 36 18
44 15 8 -3 22 -3 30 0 12 5 15 31 15 145 l0 139 -66 0 c-39 0 -63 -4 -59 -10
3 -5 -7 -12 -22 -16 -15 -3 -34 -7 -40 -10 -19 -5 -16 7 5 22 14 12 2 13 -84
11 l-102 -2 2 -27 c2 -20 -3 -27 -21 -31 -25 -5 -32 10 -9 19 8 3 12 13 9 25
-4 16 -14 19 -60 19 l-54 0 6 -32z m55 12 c0 -5 -7 -10 -16 -10 -8 0 -12 5 -9
10 3 6 10 10 16 10 5 0 9 -4 9 -10z m225 0 c4 -6 -7 -10 -27 -10 -25 0 -29 3
-18 10 19 13 37 13 45 0z m-74 -20 c5 0 9 -4 9 -10 0 -14 -13 -12 -36 6 -17
14 -17 15 -1 10 10 -3 23 -6 28 -6z m-161 -15 c0 -8 -4 -15 -10 -15 -5 0 -10
7 -10 15 0 8 5 15 10 15 6 0 10 -7 10 -15z m425 -74 c10 -16 -9 -19 -40 -5
l-30 13 32 1 c17 0 34 -4 38 -9z m-95 -21 c0 -5 -2 -10 -4 -10 -3 0 -8 5 -11
10 -3 6 -1 10 4 10 6 0 11 -4 11 -10z m-120 -36 c0 -14 -12 -19 -23 -8 -9 9 4
35 14 28 5 -3 9 -12 9 -20z m-180 -4 c0 -5 -5 -10 -11 -10 -5 0 -7 5 -4 10 3
6 8 10 11 10 2 0 4 -4 4 -10z m239 -47 c9 -7 11 -13 5 -13 -16 0 -45 35 -37
44 4 4 10 1 12 -6 2 -7 11 -18 20 -25z"/>
<path d="M1220 4545 c0 -19 0 -37 0 -40 0 -3 3 -5 8 -5 4 0 7 18 8 40 0 22 -3
40 -8 40 -4 0 -8 -16 -8 -35z"/>
<path d="M353 4452 c-16 -12 -21 -23 -16 -40 5 -22 6 -22 29 12 35 50 29 61
-13 28z"/>
<path d="M987 4404 c-4 -4 -7 -16 -7 -26 0 -16 3 -17 21 -8 11 6 19 16 16 23
-4 14 -21 20 -30 11z"/>
<path d="M2655 4319 c-16 -6 -14 -8 13 -8 33 -1 41 4 20 12 -7 2 -22 1 -33 -4z"/>
<path d="M4078 4275 c-3 -3 -59 -8 -125 -10 -107 -3 -126 -6 -172 -30 -28 -15
-54 -31 -57 -36 -3 -5 -9 -7 -14 -4 -11 7 -50 -16 -50 -29 0 -5 8 -17 17 -26
16 -15 19 -14 37 4 16 16 21 17 30 4 23 -31 65 -50 94 -43 20 4 31 2 35 -8 7
-19 81 -42 104 -31 10 5 38 9 63 9 42 0 45 2 46 26 1 15 4 35 8 45 6 16 10 15
34 -11 33 -36 38 -82 11 -90 -23 -8 -25 -23 -4 -31 19 -8 19 -19 -2 -43 -23
-27 -33 -18 -33 30 0 22 -5 39 -11 39 -7 0 -9 -10 -5 -26 4 -15 3 -23 -3 -20
-21 13 3 -34 24 -48 20 -13 25 -13 35 -1 7 8 21 15 31 15 10 0 20 4 23 9 3 5
17 11 31 13 22 5 25 2 25 -23 0 -21 -4 -27 -15 -23 -10 4 -15 0 -15 -14 0 -21
20 -34 37 -24 20 14 44 74 41 105 -3 34 1 32 -80 36 -25 1 -22 24 6 50 24 23
24 38 2 109 -5 13 -3 22 3 22 6 0 11 -11 11 -25 0 -15 6 -25 14 -25 17 0 32
-83 16 -88 -5 -2 -10 -11 -10 -19 0 -11 6 -13 23 -8 26 9 39 8 127 -3 57 -8
60 -9 25 -12 -38 -3 -56 -4 -97 -8 -22 -2 -24 -35 -3 -52 8 -7 13 -16 10 -20
-8 -13 35 -60 55 -60 20 0 52 -38 44 -52 -7 -12 -42 -10 -46 2 -2 6 -23 12
-48 13 l-45 2 -3 -42 c-4 -50 10 -56 28 -13 11 26 40 43 40 22 0 -4 18 -15 41
-25 43 -18 46 -35 12 -52 -29 -15 -53 -36 -53 -46 0 -5 11 -2 24 6 13 9 30 14
37 13 8 -2 14 4 14 12 0 8 4 18 8 21 4 3 9 18 10 34 2 31 24 40 61 25 12 -4
34 -6 49 -3 l27 5 0 110 0 109 -55 -5 c-46 -4 -56 -2 -65 13 -8 16 -5 20 28
25 20 3 49 6 65 6 l27 0 0 90 c0 96 -6 105 -50 78 -16 -10 -23 -9 -40 7 -18
16 -33 19 -84 17 -118 -7 -311 -6 -327 1 -8 4 -18 5 -21 2z m507 -75 c3 -6 -1
-7 -9 -4 -18 7 -21 14 -7 14 6 0 13 -4 16 -10z m-254 -93 c-19 -29 -21 -30
-21 -9 0 12 5 22 10 22 6 0 5 8 -2 19 -10 17 -9 24 7 42 l20 21 3 -31 c2 -20
-5 -44 -17 -64z m107 48 c-1 -19 -6 -35 -10 -35 -4 0 -7 16 -5 35 1 19 6 35
10 35 4 0 7 -16 5 -35z"/>
<path d="M3381 4204 c0 -11 3 -14 6 -6 3 7 2 16 -1 19 -3 4 -6 -2 -5 -13z"/>
<path d="M293 4145 c-3 -9 -3 -18 0 -21 9 -9 27 6 27 22 0 19 -19 18 -27 -1z"/>
<path d="M3872 4047 c3 -29 7 -32 38 -35 19 -1 30 1 24 5 -7 4 -13 16 -15 27
-2 10 -14 23 -27 27 -22 8 -23 7 -20 -24z"/>
<path d="M3372 3988 c-8 -8 -8 -17 -1 -30 7 -14 7 -24 -2 -34 -9 -11 -9 -18
-1 -26 17 -17 23 -6 24 46 1 52 -3 61 -20 44z"/>
<path d="M3915 3928 c-4 -10 -4 -21 -1 -26 3 -5 -1 -31 -9 -58 -8 -26 -12 -50
-10 -52 8 -9 25 10 25 28 0 10 5 22 10 25 13 8 13 65 0 85 -8 12 -10 12 -15
-2z"/>
<path d="M3760 3916 c0 -8 -4 -16 -9 -18 -14 -5 11 -88 26 -88 7 0 13 -4 13
-9 0 -21 79 -35 87 -16 8 21 -37 102 -62 113 -14 7 -25 16 -25 22 0 5 -7 10
-15 10 -8 0 -15 -6 -15 -14z m70 -76 c0 -5 -4 -10 -9 -10 -6 0 -13 5 -16 10
-3 6 1 10 9 10 9 0 16 -4 16 -10z"/>
<path d="M4060 3889 c0 -6 -9 -9 -19 -6 -16 4 -18 0 -17 -25 2 -20 -3 -32 -13
-36 -21 -8 -40 -33 -41 -53 0 -9 -7 -22 -15 -29 -8 -7 -13 -16 -10 -20 3 -5
-1 -15 -9 -23 -8 -7 -16 -27 -18 -43 l-3 -29 75 2 c41 2 80 3 85 3 6 1 19 -1
30 -5 19 -6 20 -2 16 42 l-4 48 -10 -32 c-10 -35 -37 -46 -37 -15 0 18 12 73
24 110 6 19 4 22 -18 22 -21 0 -26 5 -26 24 0 29 19 44 31 25 6 -10 9 -4 9 19
0 22 -5 32 -15 32 -8 0 -15 -5 -15 -11z m-95 -219 c-3 -5 -10 -10 -16 -10 -5
0 -9 5 -9 10 0 6 7 10 16 10 8 0 12 -4 9 -10z"/>
<path d="M4125 3879 c4 -13 12 -25 16 -27 5 -2 9 -12 9 -22 0 -10 4 -21 9 -24
12 -8 21 47 10 61 -7 7 -5 13 3 16 9 4 7 6 -4 6 -9 1 -24 4 -33 8 -14 5 -16 2
-10 -18z"/>
<path d="M4263 3761 c-18 -15 -20 -21 -9 -30 10 -8 18 -5 34 12 12 13 19 27
15 30 -10 10 -16 8 -40 -12z"/>
<path d="M4512 3738 c-7 -7 -12 -22 -12 -34 0 -13 -13 -49 -30 -81 -21 -39
-30 -72 -30 -104 0 -58 6 -64 37 -33 27 27 56 33 47 9 -5 -13 1 -17 22 -14 4
0 10 -5 14 -12 5 -6 15 -9 24 -6 24 9 24 272 0 281 -25 10 -59 7 -72 -6z"/>
<path d="M3697 3706 c-7 -17 1 -26 20 -26 8 0 21 -7 29 -15 9 -8 33 -15 55
-15 35 0 39 -2 39 -26 0 -40 -30 -122 -48 -129 -24 -9 -41 14 -19 26 9 6 17
21 17 35 0 15 -7 27 -17 30 -10 3 -26 10 -35 15 -28 14 -38 11 -38 -14 0 -13
-4 -27 -9 -32 -8 -9 -43 -138 -38 -141 18 -10 110 -35 134 -37 40 -3 49 14 57
100 3 35 12 78 20 97 23 55 9 85 -49 107 -26 10 -53 23 -59 29 -15 15 -53 12
-59 -4z"/>
<path d="M322 3665 c0 -16 2 -22 5 -12 2 9 2 23 0 30 -3 6 -5 -1 -5 -18z"/>
<path d="M4226 3674 c-20 -19 -21 -50 -3 -57 22 -8 34 6 34 41 0 36 -8 40 -31
16z"/>
<path d="M4356 3582 c-2 -4 -1 -14 5 -22 7 -12 9 -10 9 8 0 23 -5 28 -14 14z"/>
<path d="M3900 3486 c0 -23 20 -70 33 -78 19 -12 32 -9 19 4 -7 7 -8 16 -3 22
5 7 -2 22 -20 39 -20 19 -29 24 -29 13z"/>
<path d="M4575 3427 c-6 -12 -8 -33 -5 -47 7 -26 -14 -62 -50 -87 -18 -13 -21
-12 -30 11 -5 14 -15 26 -22 26 -9 0 -8 -3 2 -10 11 -8 8 -9 -11 -4 -15 3 -30
1 -33 -5 -10 -16 -26 -13 -26 4 0 8 9 15 20 15 12 0 20 7 20 16 0 12 -7 15
-25 12 -19 -4 -25 -1 -25 13 0 9 5 19 12 21 9 3 9 6 0 12 -8 5 -16 -3 -23 -21
-11 -27 -12 -27 -18 -6 -6 22 -7 22 -23 -8 -15 -26 -15 -31 -3 -35 8 -4 13
-10 10 -14 -3 -5 7 -32 21 -61 24 -46 25 -56 15 -84 -13 -37 -5 -69 16 -61 7
3 23 0 34 -7 21 -12 30 -6 60 43 8 13 10 13 19 0 11 -17 10 -80 -2 -80 -22 0
-4 -18 22 -22 26 -4 29 -2 24 15 -4 13 -2 17 5 13 8 -5 11 12 11 53 0 63 -7
72 -34 45 -9 -8 -20 -13 -25 -9 -17 10 9 64 50 102 38 37 39 38 39 110 0 75
-7 90 -25 50z m-115 -248 c0 -10 -4 -19 -10 -19 -5 0 -10 12 -10 26 0 14 4 23
10 19 6 -3 10 -15 10 -26z"/>
<path d="M3985 3424 c11 -8 19 -18 18 -22 -1 -4 1 -9 3 -11 2 -2 4 8 4 22 0
21 -5 27 -22 27 -23 -1 -23 -1 -3 -16z"/>
<path d="M4205 3420 c-18 -6 -20 -16 -20 -86 0 -43 -4 -91 -9 -106 -7 -24 -5
-28 10 -28 13 0 31 23 58 76 35 69 37 77 23 91 -13 14 -19 14 -32 3 -22 -18
-30 -5 -16 26 14 31 12 34 -14 24z"/>
<path d="M90 3406 c0 -9 5 -16 10 -16 6 0 10 4 10 9 0 6 -4 13 -10 16 -5 3
-10 -1 -10 -9z"/>
<path d="M4477 3388 c-2 -7 -1 -22 3 -32 6 -19 7 -19 12 2 5 17 14 22 37 22
17 0 31 5 31 10 0 15 -77 12 -83 -2z"/>
<path d="M3497 3369 c3 -11 12 -23 20 -26 17 -6 18 -5 27 25 7 19 4 22 -22 22
-26 0 -29 -3 -25 -21z"/>
<path d="M3936 3371 c-4 -7 -5 -15 -2 -18 9 -9 19 4 14 18 -4 11 -6 11 -12 0z"/>
<path d="M3423 3325 c-9 -26 6 -30 27 -7 l21 22 -21 0 c-11 0 -23 -7 -27 -15z"/>
<path d="M231 3164 c0 -11 3 -14 6 -6 3 7 2 16 -1 19 -3 4 -6 -2 -5 -13z"/>
<path d="M260 3034 c0 -8 5 -12 10 -9 6 4 8 11 5 16 -9 14 -15 11 -15 -7z"/>
<path d="M15 3030 c-3 -4 7 -10 20 -13 14 -2 28 -1 30 3 3 4 -7 10 -20 13 -14
2 -28 1 -30 -3z"/>
<path d="M2430 2972 c0 -5 -40 -9 -88 -10 -112 -2 -302 -46 -302 -70 0 -10
-77 -52 -95 -52 -17 0 -68 -54 -72 -77 -2 -10 -5 -36 -8 -58 -2 -22 -5 -44 -5
-50 -1 -5 -5 -1 -10 10 -8 19 -9 19 -9 1 -1 -11 -8 -28 -17 -38 -14 -15 -15
-26 -7 -68 9 -43 8 -52 -6 -60 -9 -4 -13 -12 -9 -16 4 -4 14 -1 23 6 12 10 16
9 21 -6 10 -35 21 -49 39 -52 11 -3 15 0 11 7 -7 11 18 16 62 12 13 -1 30 3
37 9 9 8 14 7 19 -5 3 -8 0 -15 -7 -16 -7 0 -3 -4 9 -9 20 -8 251 2 330 15
104 16 101 16 107 -4 5 -22 -13 -44 -35 -40 -7 1 -20 -1 -28 -4 -22 -9 -67
-15 -135 -17 l-60 -2 60 -10 c76 -12 197 -4 255 16 25 9 63 33 86 54 67 61
101 82 134 82 27 0 30 3 25 20 -4 12 -2 27 4 34 17 20 3 48 -17 37 -12 -7 -22
-2 -38 16 -26 31 -93 41 -289 47 -71 1 -134 4 -139 5 -5 0 3 12 18 26 14 13
26 28 26 33 0 5 17 12 39 16 21 3 44 13 51 21 7 8 29 15 49 15 20 0 61 6 91
13 36 8 74 10 110 5 30 -4 70 -5 88 -2 l33 5 -53 44 c-30 24 -80 53 -113 65
-33 12 -76 30 -96 41 -37 19 -89 26 -89 11z m25 -343 c5 -5 -22 -9 -65 -9 -41
0 -86 -3 -99 -7 -18 -4 -22 -2 -19 8 3 8 20 17 39 20 41 8 130 0 144 -12z
m-95 -89 c0 -5 -4 -10 -10 -10 -5 0 -10 5 -10 10 0 6 5 10 10 10 6 0 10 -4 10
-10z m-119 -58 c5 -12 4 -22 -1 -22 -15 0 -41 31 -34 41 9 15 26 6 35 -19z"/>
<path d="M3311 2924 c0 -11 3 -14 6 -6 3 7 2 16 -1 19 -3 4 -6 -2 -5 -13z"/>
<path d="M3370 2809 c0 -5 5 -7 10 -4 6 3 10 8 10 11 0 2 -4 4 -10 4 -5 0 -10
-5 -10 -11z"/>
<path d="M4502 2707 c-11 -15 -33 -93 -35 -126 -2 -22 4 -25 58 -37 33 -7 63
-13 68 -13 13 -2 7 133 -7 152 -18 24 -72 39 -84 24z"/>
<path d="M3358 2677 c-15 -12 -37 -43 -48 -68 -13 -31 -29 -50 -48 -58 -32
-13 -58 -59 -66 -116 -3 -22 -10 -41 -14 -43 -21 -7 21 -133 58 -178 23 -27
27 -28 50 -17 25 13 25 13 3 19 -18 5 -20 10 -12 31 13 36 11 69 -6 83 -19 16
-19 54 0 70 9 7 23 28 32 48 16 33 16 35 -2 48 -23 17 -45 2 -45 -32 0 -14 -4
-32 -9 -42 -6 -9 -12 -29 -16 -44 -10 -48 -22 -31 -17 25 2 30 12 65 24 82 23
35 71 62 77 44 2 -6 21 -29 42 -52 l39 -42 0 28 c0 22 5 27 24 27 22 0 24 5
30 63 13 124 -30 179 -96 124z"/>
<path d="M340 2611 c0 -6 5 -13 10 -16 6 -3 10 1 10 9 0 9 -4 16 -10 16 -5 0
-10 -4 -10 -9z"/>
<path d="M3873 2563 c-29 -2 -53 -8 -53 -14 0 -5 5 -9 10 -9 6 0 19 -9 29 -19
19 -19 20 -19 46 15 14 19 25 33 23 32 -2 -1 -27 -3 -55 -5z"/>
<path d="M4007 2474 c-9 -10 2 -24 19 -24 8 0 14 7 14 15 0 15 -21 21 -33 9z"/>
<path d="M4130 2454 c0 -8 5 -12 10 -9 6 3 10 10 10 16 0 5 -4 9 -10 9 -5 0
-10 -7 -10 -16z"/>
<path d="M4586 2453 c-4 -9 -2 -21 4 -27 7 -7 10 -2 10 17 0 31 -5 34 -14 10z"/>
<path d="M4370 2416 c0 -15 48 -51 57 -42 3 3 -2 17 -11 31 -18 27 -46 34 -46
11z"/>
<path d="M4508 2409 c-40 -21 -43 -30 -29 -92 12 -49 13 -50 45 -36 32 15 43
52 26 84 -9 17 -9 28 -1 44 14 26 7 26 -41 0z"/>
<path d="M291 2406 c-19 -23 -3 -44 32 -41 41 3 49 31 12 45 -33 12 -30 13
-44 -4z"/>
<path d="M236 2401 c-3 -5 1 -11 9 -15 8 -3 15 -1 15 4 0 13 -18 22 -24 11z"/>
<path d="M2118 2403 c7 -3 16 -2 19 1 4 3 -2 6 -13 5 -11 0 -14 -3 -6 -6z"/>
<path d="M4007 2372 c-23 -26 -21 -35 13 -65 29 -27 36 -53 31 -123 -2 -17 5
-23 29 -26 40 -6 46 5 15 26 -21 14 -24 20 -14 37 8 16 7 26 -6 46 -12 17 -15
36 -11 58 5 23 2 38 -9 49 -21 20 -28 20 -48 -2z"/>
<path d="M242 2340 c0 -14 2 -19 5 -12 2 6 2 18 0 25 -3 6 -5 1 -5 -13z"/>
<path d="M366 2333 c-6 -14 -5 -15 5 -6 7 7 10 15 7 18 -3 3 -9 -2 -12 -12z"/>
<path d="M282 2331 c4 -13 18 -16 19 -4 0 4 -5 9 -11 12 -7 2 -11 -2 -8 -8z"/>
<path d="M396 2295 c4 -8 10 -15 15 -15 5 0 9 7 9 15 0 8 -7 15 -15 15 -9 0
-12 -6 -9 -15z"/>
<path d="M3835 2290 c-3 -5 -1 -10 4 -10 6 0 11 5 11 10 0 6 -2 10 -4 10 -3 0
-8 -4 -11 -10z"/>
<path d="M3774 2241 c-10 -17 -22 -31 -27 -31 -5 0 -6 -8 -2 -17 5 -10 11 -36
15 -58 7 -35 9 -37 15 -17 7 22 35 32 35 12 0 -6 11 -16 25 -22 31 -14 35 -57
6 -65 -12 -3 -21 -15 -23 -32 -2 -15 -9 -26 -18 -26 -11 0 -14 10 -12 43 1 23
-2 42 -7 42 -14 0 -32 -36 -23 -45 4 -4 -2 -6 -13 -3 -29 5 -48 47 -32 73 14
21 12 55 -3 55 -5 0 -15 -3 -24 -6 -14 -5 -14 -8 -1 -27 13 -18 13 -23 -2 -39
-20 -22 -36 -23 -53 -3 -18 22 -32 18 -20 -6 16 -28 5 -49 -24 -49 -32 0 -40
14 -41 68 -1 50 18 67 63 58 29 -6 58 6 49 20 -3 5 -29 8 -59 6 -44 -3 -56 -8
-63 -25 -6 -12 -19 -23 -30 -25 -29 -5 -34 -12 -48 -68 -20 -78 -3 -99 39 -46
20 24 24 25 38 12 10 -10 13 -24 9 -39 -5 -19 -11 -22 -34 -17 -23 4 -28 2
-31 -17 -2 -12 -13 -26 -25 -32 -33 -14 -65 -138 -51 -195 9 -34 8 -48 -5 -76
-23 -47 -53 -46 -73 2 -14 33 -14 38 3 57 18 19 18 20 -4 8 -12 -6 -25 -16
-28 -21 -3 -6 -25 -10 -48 -10 l-42 0 1 -112 c1 -62 4 -219 8 -348 7 -233 7
-235 32 -261 14 -14 33 -54 44 -89 10 -34 25 -70 33 -79 8 -9 31 -57 52 -108
30 -74 36 -99 31 -129 -4 -20 -43 -143 -87 -273 -44 -130 -83 -246 -86 -258
l-5 -23 686 0 686 0 0 988 0 988 -21 18 c-21 17 -22 17 -80 -28 -63 -49 -76
-54 -85 -32 -6 16 42 76 61 76 15 0 45 32 45 48 0 6 -12 23 -26 37 -21 21 -32
25 -55 20 -21 -5 -36 -1 -55 14 -28 22 -64 28 -64 11 0 -6 7 -13 15 -16 20 -8
19 -27 -4 -55 -16 -19 -16 -25 -5 -37 21 -21 17 -52 -8 -61 -38 -14 -66 27
-38 55 6 6 6 21 -3 43 -11 30 -10 34 11 51 30 25 13 34 -27 14 -18 -9 -31 -23
-31 -34 0 -32 -11 -50 -32 -50 -18 0 -19 5 -13 40 6 38 6 40 -19 40 -18 0 -26
-5 -26 -18 0 -10 -5 -23 -10 -28 -8 -8 -6 -15 5 -24 20 -17 19 -43 -3 -63 -42
-38 -74 -10 -52 44 11 26 11 32 -1 40 -20 13 -23 11 -34 -13 -13 -29 -43 -35
-60 -11 -16 21 -19 59 -6 67 5 3 8 33 8 66 -1 50 -5 60 -19 60 -18 0 -36 -59
-24 -79 3 -5 2 -20 -3 -33 -5 -13 -5 -31 -1 -39 13 -22 0 -69 -19 -69 -34 0
-56 51 -31 76 5 5 10 29 12 54 3 45 3 45 -29 43 -29 -3 -32 0 -35 30 -4 45
-39 50 -64 8z m46 -42 c0 -19 -5 -29 -15 -29 -21 0 -29 24 -15 49 14 28 30 18
30 -20z m400 -209 c0 -22 -4 -40 -9 -40 -11 0 15 -56 30 -65 14 -9 11 -32 -6
-39 -18 -7 -55 13 -55 30 0 6 -9 23 -20 37 -25 31 -26 65 -2 74 9 4 23 15 30
25 21 29 32 21 32 -22z m-282 -17 c-2 -27 -8 -39 -20 -41 -15 -3 -18 4 -18 37
0 35 3 41 21 41 17 0 20 -5 17 -37z m-190 -2 c2 -12 1 -29 -2 -38 -9 -22 -36
2 -36 32 0 41 32 47 38 6z m62 -51 c0 -41 -12 -52 -28 -24 -12 22 -3 64 14 64
10 0 14 -13 14 -40z m304 24 c22 -8 20 -51 -3 -63 -13 -7 -24 -6 -37 3 -16 13
-17 17 -5 40 15 28 20 30 45 20z m216 -19 c9 -11 17 -12 32 -4 15 8 23 8 32
-1 15 -15 -27 -50 -53 -43 -20 5 -37 -22 -21 -32 14 -9 12 -52 -2 -75 -10 -15
-10 -22 0 -32 15 -15 15 -43 1 -66 -9 -15 -3 -35 30 -105 38 -79 41 -90 29
-114 -7 -14 -34 -38 -59 -51 l-45 -26 -33 23 c-30 22 -33 22 -51 6 -36 -33
-43 -11 -34 114 4 64 9 132 10 151 0 19 2 43 3 53 1 22 41 23 41 0 0 -9 3 -14
6 -10 11 11 -7 46 -27 52 -22 7 -24 26 -8 57 l11 21 17 -21 c24 -32 51 -7 56
52 2 25 7 50 10 56 9 15 41 12 55 -5z m-592 -53 c2 -23 -1 -32 -12 -32 -21 0
-29 17 -22 46 9 34 30 25 34 -14z m200 13 c3 -26 -13 -50 -27 -41 -6 4 -11 21
-11 37 0 24 4 30 18 27 9 -2 18 -12 20 -23z m-130 -59 c3 -32 1 -37 -15 -34
-19 3 -29 38 -19 65 10 26 31 8 34 -31z m320 1 c2 -10 -4 -27 -13 -37 -15 -17
-16 -21 -2 -41 12 -16 13 -27 5 -45 -8 -17 -8 -31 0 -48 14 -32 -5 -59 -38
-54 -31 4 -38 33 -15 58 16 18 16 20 1 35 -21 21 -20 27 4 58 17 21 18 26 5
31 -18 7 -20 52 -2 60 23 10 52 1 55 -17z m-388 -48 c0 -24 -4 -30 -17 -27
-13 2 -19 14 -21 41 -3 36 -2 38 17 27 14 -7 21 -21 21 -41z m190 1 c0 -20 -5
-30 -15 -30 -21 0 -30 27 -15 45 19 23 30 18 30 -15z m-122 -168 c3 -146 -4
-192 -28 -192 -6 0 -15 20 -22 45 -9 32 -18 45 -32 47 -27 4 -48 75 -35 120 5
18 9 45 9 60 0 20 8 30 30 42 27 13 44 6 20 -9 -12 -7 -12 -101 -1 -130 6 -15
10 -5 17 40 4 33 9 71 10 85 2 45 4 52 17 48 9 -4 13 -46 15 -156z m119 61
c-2 -21 0 -78 5 -126 9 -75 8 -94 -7 -133 -12 -32 -22 -44 -34 -42 -25 5 -28
62 -9 173 10 55 17 115 18 133 0 23 5 32 16 32 13 0 15 -8 11 -37z"/>
<path d="M4253 1761 c-10 -15 -9 -20 2 -25 16 -6 39 19 30 34 -9 15 -19 12
-32 -9z"/>
<path d="M3296 2245 c4 -8 10 -15 15 -15 5 0 9 7 9 15 0 8 -7 15 -15 15 -9 0
-12 -6 -9 -15z"/>
<path d="M3450 2164 c0 -14 4 -23 10 -19 6 3 10 15 10 26 0 10 -4 19 -10 19
-5 0 -10 -12 -10 -26z"/>
<path d="M1420 2151 c0 -6 5 -13 10 -16 6 -3 10 1 10 9 0 9 -4 16 -10 16 -5 0
-10 -4 -10 -9z"/>
<path d="M4530 2110 c12 -22 40 -26 58 -8 21 21 13 28 -28 28 -38 0 -40 -2
-30 -20z"/>
<path d="M1095 2110 c-3 -6 -26 -15 -51 -21 -54 -14 -60 -34 -6 -24 52 9 92
28 92 42 0 15 -26 17 -35 3z"/>
<path d="M1500 2110 c0 -5 5 -10 10 -10 6 0 10 5 10 10 0 6 -4 10 -10 10 -5 0
-10 -4 -10 -10z"/>
<path d="M3414 2057 c-9 -25 -9 -66 1 -67 5 0 11 18 12 40 3 40 -3 52 -13 27z"/>
<path d="M3262 2003 c-5 -10 -13 -37 -17 -61 -4 -26 -15 -48 -26 -55 -21 -13
-25 -27 -8 -27 24 0 79 87 79 126 0 30 -16 40 -28 17z"/>
<path d="M828 2003 c7 -3 16 -2 19 1 4 3 -2 6 -13 5 -11 0 -14 -3 -6 -6z"/>
<path d="M3140 1970 c0 -13 -10 -24 -24 -30 -20 -7 -25 -16 -24 -47 0 -21 -4
-49 -10 -63 -5 -15 -5 -38 0 -59 7 -26 13 -32 29 -28 13 3 19 0 19 -11 0 -37
11 0 17 54 13 139 14 204 4 204 -6 0 -11 -9 -11 -20z m-13 -162 c-3 -7 -5 -2
-5 12 0 14 2 19 5 13 2 -7 2 -19 0 -25z"/>
<path d="M1785 1830 c3 -5 10 -10 16 -10 5 0 9 5 9 10 0 6 -7 10 -16 10 -8 0
-12 -4 -9 -10z"/>
<path d="M2210 1796 c0 -2 7 -6 15 -10 8 -3 15 -1 15 4 0 6 -7 10 -15 10 -8 0
-15 -2 -15 -4z"/>
<path d="M2302 1788 c-17 -17 -15 -25 19 -68 25 -31 29 -42 21 -53 -14 -17 -6
-27 23 -27 25 0 90 -32 123 -60 13 -12 38 -22 55 -23 18 -1 37 -8 43 -16 16
-20 31 -7 38 33 9 45 -1 66 -31 66 -16 0 -27 7 -30 20 -3 11 -9 20 -14 20 -4
0 -20 11 -35 25 -18 17 -30 22 -34 14 -5 -7 -9 -5 -13 5 -4 9 -15 16 -26 16
-11 0 -22 4 -26 10 -3 5 -12 7 -20 3 -9 -3 -15 1 -15 10 0 17 -27 30 -42 21
-6 -4 -13 -2 -17 5 -5 8 -10 8 -19 -1z m253 -177 c-8 -13 -45 -15 -45 -2 0 5
10 11 23 13 27 5 31 3 22 -11z"/>
<path d="M2890 1731 c0 -5 6 -11 13 -14 6 -2 -1 -2 -16 0 -20 4 -33 -1 -42
-14 -7 -10 -17 -14 -21 -10 -5 4 -2 12 6 17 11 7 6 10 -17 10 -23 0 -33 -5
-33 -15 0 -9 -7 -18 -15 -21 -17 -7 -20 -47 -4 -75 8 -17 7 -23 -8 -35 -10 -7
-13 -14 -8 -14 13 0 0 -194 -15 -228 -13 -31 -13 -32 10 -32 45 0 99 49 100
91 0 14 3 29 8 33 4 4 12 31 17 59 9 47 14 53 45 64 29 10 31 12 11 12 -23 1
-24 2 -6 21 17 18 17 21 0 46 -16 25 -16 26 4 41 26 18 27 35 3 56 -21 19 -32
22 -32 8z m-110 -221 c0 -5 -2 -10 -4 -10 -3 0 -8 5 -11 10 -3 6 -1 10 4 10 6
0 11 -4 11 -10z"/>
<path d="M3095 1709 c-8 -12 0 -22 19 -25 9 -1 12 5 9 17 -6 21 -18 25 -28 8z"/>
<path d="M3079 1663 c-1 -5 -1 -11 0 -15 0 -5 -2 -8 -6 -8 -5 0 -9 -36 -11
-80 -3 -68 -1 -80 13 -80 13 0 15 14 14 95 -1 52 -3 95 -5 95 -2 0 -5 -3 -5
-7z"/>
<path d="M820 1598 c0 -13 -3 -34 -7 -47 -4 -17 -2 -22 7 -19 14 4 22 76 8 84
-4 3 -8 -5 -8 -18z"/>
<path d="M2960 1566 c0 -8 5 -18 10 -21 6 -4 8 -11 5 -16 -4 -5 -2 -9 3 -9 11
0 23 40 16 52 -9 14 -34 9 -34 -6z"/>
<path d="M3080 1459 c0 -5 -4 -8 -9 -5 -15 10 -22 -42 -9 -64 20 -32 28 -24
28 30 0 28 -2 50 -5 50 -3 0 -5 -5 -5 -11z"/>
<path d="M2713 1253 c1 -18 5 -33 9 -33 10 0 9 19 -2 45 -7 16 -9 14 -7 -12z"/>
<path d="M2680 1160 c11 -21 37 -18 37 5 0 9 -10 15 -24 15 -20 0 -22 -3 -13
-20z"/>
<path d="M2746 1138 c-3 -13 -1 -27 4 -32 7 -7 10 1 10 22 0 37 -5 41 -14 10z"/>
<path d="M1250 895 c-14 -17 -5 -48 13 -43 14 5 23 58 9 58 -5 0 -15 -7 -22
-15z"/>
<path d="M3130 734 c0 -8 5 -12 10 -9 6 3 10 10 10 16 0 5 -4 9 -10 9 -5 0
-10 -7 -10 -16z"/>
<path d="M1844 668 c3 -13 6 -34 6 -47 0 -23 1 -24 20 -6 11 10 20 27 20 38 0
21 0 21 -16 1 -15 -18 -15 -18 -11 9 3 19 0 27 -11 27 -10 0 -13 -7 -8 -22z"/>
<path d="M1280 662 c0 -5 6 -16 13 -27 11 -14 20 -16 43 -10 28 7 28 7 7 16
-13 4 -23 13 -23 19 0 5 -9 10 -20 10 -11 0 -20 -4 -20 -8z"/>
</g>
</svg>
